<?xml version="1.0" standalone="no"?>
<!DOCTYPE svg PUBLIC "-//W3C//DTD SVG 20010904//EN"
 "http://www.w3.org/TR/2001/REC-SVG-20010904/DTD/svg10.dtd">
<svg version="1.0" xmlns="http://www.w3.org/2000/svg"
 width="300.000000pt" height="300.000000pt" viewBox="0 0 300.000000 300.000000"
 preserveAspectRatio="xMidYMid meet">
<metadata>
Created by potrace 1.11, written by Peter Selinger 2001-2013
</metadata>
<g transform="translate(0.000000,300.000000) scale(0.100000,-0.100000)"
fill="#000000" stroke="none">
<path d="M810 2800 c0 -93 1 -100 20 -100 18 0 20 7 20 65 0 70 20 105 59 105
31 0 43 -26 49 -100 3 -50 9 -70 18 -70 10 0 14 15 14 54 0 72 13 104 46 112
43 11 64 -23 64 -103 0 -56 2 -64 18 -61 34 6 28 142 -9 179 -23 23 -76 25
-107 3 -21 -15 -25 -15 -41 0 -20 18 -63 21 -92 6 -13 -7 -19 -7 -19 0 0 5 -9
10 -20 10 -19 0 -20 -7 -20 -100z"/>
<path d="M1150 2897 c0 -2 13 -30 29 -63 64 -134 66 -171 7 -161 -25 4 -36 1
-40 -9 -8 -20 35 -38 69 -30 22 6 36 27 86 132 32 69 59 127 59 129 0 3 -8 5
-19 5 -13 0 -28 -20 -52 -74 l-33 -74 -32 71 c-23 53 -37 73 -53 75 -11 2 -21
2 -21 -1z"/>
<path d="M1470 2800 c0 -93 1 -100 20 -100 18 0 20 7 20 65 0 52 4 69 20 85
22 22 42 25 71 10 16 -9 19 -22 19 -85 0 -68 2 -75 20 -75 18 0 20 7 20 75 0
67 -3 79 -25 100 -26 27 -72 33 -106 15 -13 -7 -19 -7 -19 0 0 5 -9 10 -20 10
-19 0 -20 -7 -20 -100z"/>
<path d="M1729 2871 c-48 -49 -38 -125 21 -156 40 -20 83 -19 111 4 35 29 14
47 -29 26 -27 -14 -36 -14 -59 -3 -15 7 -29 21 -31 31 -3 15 6 17 72 17 l76 0
0 28 c0 42 -46 82 -94 82 -28 0 -45 -7 -67 -29z m105 -17 c27 -26 18 -34 -39
-34 -59 0 -64 4 -38 32 20 22 56 23 77 2z"/>
<path d="M1901 2888 c0 -7 15 -51 33 -98 43 -109 58 -111 96 -16 l27 69 27
-71 c20 -52 33 -72 46 -72 10 0 20 8 23 18 2 9 19 54 36 100 28 75 29 82 12
82 -12 0 -23 -14 -34 -42 -9 -24 -21 -56 -28 -73 l-11 -30 -27 70 c-37 95 -55
95 -90 -2 l-25 -72 -26 72 c-17 46 -33 73 -43 75 -9 2 -17 -2 -16 -10z"/>
<path d="M779 2427 c-86 -58 -90 -207 -9 -420 17 -43 30 -91 30 -107 0 -20
-23 -58 -81 -131 -91 -115 -105 -140 -95 -165 13 -33 83 -8 460 166 105 48
205 90 223 94 69 15 128 -54 121 -145 -3 -39 -6 -44 -29 -47 -16 -2 -42 7 -65
23 -46 32 -75 39 -122 32 -52 -7 -648 -301 -661 -326 -24 -44 -6 -57 309 -212
238 -118 315 -149 370 -149 46 0 49 9 16 53 -73 98 -71 143 9 223 30 30 60 54
67 54 18 -1 52 -29 71 -60 15 -23 15 -28 0 -55 -46 -84 -53 -101 -53 -123 0
-60 92 -93 218 -78 104 12 132 78 72 167 -16 24 -30 54 -30 65 0 20 60 84 79
84 17 0 87 -63 108 -98 36 -59 28 -108 -33 -188 -13 -17 -21 -34 -17 -37 12
-13 70 -7 132 14 75 25 524 247 564 279 31 25 35 50 9 73 -10 9 -157 85 -328
168 -291 142 -312 151 -356 147 -29 -3 -62 -15 -86 -32 -86 -59 -131 -5 -83
101 25 53 61 78 103 69 18 -4 132 -52 253 -108 339 -156 433 -190 436 -155 3
29 -7 47 -74 136 -123 161 -120 150 -72 268 52 129 70 284 41 354 -20 47 -56
79 -99 86 -53 8 -118 -29 -197 -114 l-67 -73 -408 0 -409 0 -82 80 c-113 111
-169 132 -235 87z m501 -817 c11 -11 20 -33 20 -50 0 -65 -79 -94 -119 -44
-27 35 -26 59 4 89 29 30 68 32 95 5z m534 -1 c49 -39 22 -119 -41 -119 -34 0
-73 36 -73 67 0 29 42 73 68 73 11 0 31 -9 46 -21z"/>
<path d="M940 640 l0 -360 40 0 40 0 0 158 c0 144 2 162 23 202 30 61 72 82
154 78 115 -7 133 -43 133 -273 l0 -165 40 0 40 0 0 180 c0 227 -13 265 -102
311 -82 42 -201 30 -260 -26 l-28 -26 0 141 0 140 -40 0 -40 0 0 -360z"/>
<path d="M501 959 c-105 -20 -169 -82 -177 -170 -4 -41 -1 -62 14 -89 33 -61
66 -77 277 -136 97 -27 134 -81 103 -148 -18 -40 -55 -58 -129 -64 -80 -5
-156 11 -205 45 -42 28 -61 25 -70 -12 -7 -30 6 -43 72 -75 137 -64 328 -37
399 58 30 41 33 132 6 176 -31 50 -69 69 -211 111 -148 43 -175 63 -174 127 1
35 7 47 34 70 57 47 187 50 272 7 43 -22 53 -19 63 23 6 23 2 29 -25 43 -34
17 -151 45 -185 44 -11 -1 -40 -5 -64 -10z"/>
<path d="M1735 791 c-100 -26 -164 -88 -190 -185 -46 -171 72 -327 247 -327
112 0 189 45 234 138 65 132 15 293 -111 352 -50 23 -135 34 -180 22z m146
-87 c39 -19 77 -69 85 -110 28 -148 -51 -252 -185 -242 -109 8 -166 79 -159
199 3 58 8 74 34 106 52 65 149 85 225 47z"/>
<path d="M2378 787 c-26 -8 -63 -26 -82 -41 l-36 -27 0 35 c0 35 -1 36 -40 36
l-40 0 0 -345 0 -345 40 0 40 0 0 131 0 131 34 -30 c47 -41 96 -55 175 -50 77
6 118 25 167 76 46 49 57 90 53 199 -4 82 -7 95 -34 134 -58 82 -178 123 -277
96z m150 -84 c19 -9 46 -34 60 -56 23 -34 27 -51 27 -112 0 -60 -4 -78 -25
-108 -47 -70 -155 -98 -229 -59 -111 56 -135 219 -45 306 57 56 133 66 212 29z"/>
</g>
</svg>
